<mxfile host="app.diagrams.net" modified="2023-11-10T06:19:09.242Z" agent="Mozilla/5.0 (Windows NT 10.0; Win64; x64) AppleWebKit/537.36 (KHTML, like Gecko) Chrome/119.0.0.0 Safari/537.36" etag="WtPhUUtT3pi7ryfO523F" version="22.1.0" type="device">
  <diagram name="페이지-1" id="nJjQuzxzFOZdTHx67VrJ">
    <mxGraphModel dx="1851" dy="294" grid="0" gridSize="10" guides="1" tooltips="1" connect="1" arrows="1" fold="1" page="0" pageScale="1" pageWidth="1169" pageHeight="827" background="#FFFFFF" math="0" shadow="0">
      <root>
        <mxCell id="0" />
        <mxCell id="1" parent="0" />
        <mxCell id="q1l0Mfk32L4LQjD-C9zq-31" value="" style="edgeStyle=orthogonalEdgeStyle;rounded=0;orthogonalLoop=1;jettySize=auto;html=1;verticalAlign=top;" parent="1" edge="1">
          <mxGeometry relative="1" as="geometry">
            <mxPoint x="1940" y="250" as="sourcePoint" />
          </mxGeometry>
        </mxCell>
        <mxCell id="7Ne4PcIB_8j4skOOkWno-11" value="" style="edgeStyle=orthogonalEdgeStyle;rounded=0;orthogonalLoop=1;jettySize=auto;html=1;fontStyle=0;fontSize=14;" edge="1" parent="1" source="7Ne4PcIB_8j4skOOkWno-4" target="7Ne4PcIB_8j4skOOkWno-10">
          <mxGeometry relative="1" as="geometry" />
        </mxCell>
        <mxCell id="7Ne4PcIB_8j4skOOkWno-4" value="server.js" style="ellipse;whiteSpace=wrap;html=1;strokeWidth=7;strokeColor=#62eaf3;fontSize=14;fontStyle=0;fontFamily=Lucida Console;" vertex="1" parent="1">
          <mxGeometry x="-1012" y="499" width="120" height="80" as="geometry" />
        </mxCell>
        <mxCell id="7Ne4PcIB_8j4skOOkWno-41" style="edgeStyle=orthogonalEdgeStyle;rounded=0;orthogonalLoop=1;jettySize=auto;html=1;entryX=0;entryY=0.5;entryDx=0;entryDy=0;" edge="1" parent="1" source="7Ne4PcIB_8j4skOOkWno-10" target="7Ne4PcIB_8j4skOOkWno-38">
          <mxGeometry relative="1" as="geometry" />
        </mxCell>
        <mxCell id="7Ne4PcIB_8j4skOOkWno-10" value="routes" style="ellipse;whiteSpace=wrap;html=1;strokeWidth=7;strokeColor=#dc4eef;fontSize=14;fontStyle=0;fontFamily=Lucida Console;" vertex="1" parent="1">
          <mxGeometry x="-814" y="499" width="120" height="80" as="geometry" />
        </mxCell>
        <mxCell id="7Ne4PcIB_8j4skOOkWno-38" value="DB" style="ellipse;whiteSpace=wrap;html=1;strokeWidth=7;strokeColor=#41abfb;fontSize=14;fontStyle=0;fontFamily=Lucida Console;" vertex="1" parent="1">
          <mxGeometry x="-616" y="499" width="120" height="80" as="geometry" />
        </mxCell>
      </root>
    </mxGraphModel>
  </diagram>
</mxfile>
